<?xml version="1.0" encoding="UTF-8"?>
<svg width="900" height="620" viewBox="0 0 900 620" xmlns="http://www.w3.org/2000/svg" role="img" aria-label="节肢动物落叶小天地">
  <defs><linearGradient id="bg" x1="0" y1="0" x2="1" y2="1"><stop stop-color="#eef4df"/><stop offset="1" stop-color="#c7d5b1"/></linearGradient></defs>
  <rect width="900" height="620" rx="44" fill="url(#bg)"/>
  <circle cx="720" cy="130" r="72" fill="#f6d777" opacity="0.62"/>
  <path d="M 40 470 C 210 374, 354 500, 510 430 C 650 366, 740 446, 860 384 L 860 620 L 40 620 Z" fill="#8ca46c" opacity="0.52"/>
  <path d="M 116 472 C 182 390, 288 430, 326 520 C 238 542, 164 526, 116 472 Z" fill="#b58a4b" opacity="0.7"/>
  <path d="M 626 474 C 706 398, 792 434, 824 522 C 748 546, 664 534, 626 474 Z" fill="#8eaa66" opacity="0.68"/>
  <ellipse cx="450" cy="402" rx="114" ry="58" fill="#665a4c" opacity="0.9"/>
  <path d="M 365 402 C 410 350, 488 350, 535 402" stroke="#3f382f" stroke-width="14" stroke-linecap="round" fill="none" opacity="0.55"/>
  <path d="M 390 361 C 412 438, 415 438, 390 443 M 430 348 C 450 444, 454 444, 430 455 M 470 348 C 490 444, 494 444, 470 455 M 510 361 C 532 438, 535 438, 510 443" stroke="#3f382f" stroke-width="9" opacity="0.42"/>
  <rect x="250" y="154" width="400" height="142" rx="40" fill="white" opacity="0.78"/>
  <text x="450" y="218" text-anchor="middle" font-size="38" font-family="Arial, PingFang SC, sans-serif" font-weight="800" fill="#3d4632">节肢动物小天地</text>
  <text x="450" y="260" text-anchor="middle" font-size="24" font-family="Arial, PingFang SC, sans-serif" fill="#65715a">潮湿落叶 · 安静观察 · 不挤压</text>
</svg>